# xmcd
#
# Track frame offsets: 
#        150
#        11201
#        21843
#        33163
#        44710
#        55817
#        68119
#        80531
#        92669
#        105070
#        116728
#        128045
#        140014
#        153425
#        164525
#        174114
#        185330
#        195634
#        206558
#        217272
#
# Disc length: 3060 seconds
#
# Revision: 0
# Processed by: cddbd v1.5.2PL0 Copyright (c) Steve Scherf et al.
# Submitted via: ExactAudioCopy v1.0b3
#
DISCID=160bf214
DTITLE=Reeves, Jim - Legends Of Country Music [Disc 3]
DYEAR=2008
DGENRE=Country
TTITLE0=I'm Hurting Inside
TTITLE1=If You Were Mine
TTITLE2=That's A Sad Affair
TTITLE3=Yonder Comes A Sucker
TTITLE4=Jimbo Jenkins
TTITLE5=I've Lived A Lot In My Time
TTITLE6=Drinking Tequila
TTITLE7=Shall We Gather At The River? (Mother Went A-Walkin')
TTITLE8=I've Never Been So Blue
TTITLE9=Reeves, Jim with Alvadean Coker - Are You The One
TTITLE10=Wagon Load Of Love
TTITLE11=How Many
TTITLE12=I Could Cry
TTITLE13=Tahiti
TTITLE14=Waiting For A Train
TTITLE15=According To My Heart
TTITLE16=Beatin' On A Ding Dong
TTITLE17=My Lips Are Sealed
TTITLE18=Reeves, Jim with Carol Johnson - Mother Of A Honky Tonk Girl
TTITLE19=Am I Losing You?
EXTD=
EXTT0=
EXTT1=
EXTT2=
EXTT3=
EXTT4=
EXTT5=
EXTT6=
EXTT7=
EXTT8=
EXTT9=
EXTT10=
EXTT11=
EXTT12=
EXTT13=
EXTT14=
EXTT15=
EXTT16=
EXTT17=
EXTT18=
EXTT19=
PLAYORDER=
